<svg width="38" height="38" viewBox="0 0 38 38" fill="none" xmlns="http://www.w3.org/2000/svg">
<path d="M28.7691 7.77426L27.0749 6.08009L18.2874 14.8676V16.5776H19.9974L28.7691 7.77426ZM25.3333 4.33842L27.3758 2.29592C27.5952 2.0738 27.8565 1.89744 28.1446 1.77707C28.4327 1.65671 28.7419 1.59473 29.0541 1.59473C29.3663 1.59473 29.6754 1.65671 29.9635 1.77707C30.2516 1.89744 30.513 2.0738 30.7324 2.29592L32.5532 4.11676C33.4874 5.05092 33.4874 6.55509 32.5532 7.47342L31.4766 8.55009L31.4449 8.58176L30.5266 9.50009L21.0266 19.0001H15.8333V13.8384L25.3333 4.33842ZM21.7233 3.46759L20.8524 4.33842L18.8416 6.34926C13.6166 6.42842 9.49992 10.4659 9.49992 16.1659C9.49992 19.8709 12.5874 24.7793 18.9999 30.6376C25.4124 24.7793 28.4999 19.8868 28.4999 16.1659V16.0076L31.3499 13.1576C31.5557 14.1076 31.6666 15.1209 31.6666 16.1659C31.6666 21.4226 27.4391 27.6451 18.9999 34.8493C10.5608 27.6451 6.33325 21.4226 6.33325 16.1659C6.33325 8.28092 12.3499 3.18259 18.9999 3.18259C19.9183 3.18259 20.8366 3.27759 21.7233 3.46759Z" fill="#757575"/>
</svg>
